<?xml version="1.0" encoding="UTF-8"?><svg width="48" height="48" viewBox="0 0 48 48" fill="none" xmlns="http://www.w3.org/2000/svg"><path d="M24 48C37.2548 48 48 37.2548 48 24C48 10.7452 37.2548 0 24 0C10.7452 0 0 10.7452 0 24C0 37.2548 10.7452 48 24 48Z" fill="#e8f5fe"/><path d="M29.4 7.19995C29.2409 7.19995 29.0882 7.26317 28.9757 7.37569 28.8632 7.48821 28.8 7.64082 28.8 7.79995V13.8C28.8 13.9591 28.8632 14.1117 28.9757 14.2242 29.0882 14.3367 29.2409 14.4 29.4 14.4H45.996C44.8265 11.7241 43.1785 9.2841 41.133 7.19995H29.4zM18.6 15.6001H6.6C6.26863 15.6001 6 15.8687 6 16.2001V18.6001C6 18.9315 6.26863 19.2001 6.6 19.2001H18.6C18.9314 19.2001 19.2 18.9315 19.2 18.6001V16.2001C19.2 15.8687 18.9314 15.6001 18.6 15.6001zM23.4 34.8H12.6C12.2686 34.8 12 35.0687 12 35.4V39C12 39.3314 12.2686 39.6 12.6 39.6H23.4C23.7314 39.6 24 39.3314 24 39V35.4C24 35.0687 23.7314 34.8 23.4 34.8z" fill="#fff"/><path d="M42.582 39.186L25.698 22.302L22.302 25.698L39.186 42.582C40.4277 41.5653 41.5653 40.4277 42.582 39.186Z" fill="#005eb8"/><path d="M36.729 40.122L22.302 25.698L25.698 22.302L36.729 33.333V40.122Z" fill="#002f6c"/><path d="M24 37.2001C31.2901 37.2001 37.2 31.2902 37.2 24C37.2 16.7099 31.2901 10.8 24 10.8C16.7098 10.8 10.8 16.7099 10.8 24C10.8 31.2902 16.7098 37.2001 24 37.2001Z" fill="#0091da"/><path d="M24 34.8C29.9647 34.8 34.8 29.9646 34.8 24C34.8 18.0353 29.9647 13.2 24 13.2C18.0353 13.2 13.2 18.0353 13.2 24C13.2 29.9646 18.0353 34.8 24 34.8Z" fill="#fff"/><path d="M31.638 16.3621C33.6637 18.3878 34.8018 21.1353 34.8018 24.0001C34.8018 26.8649 33.6637 29.6123 31.638 31.6381C30.635 32.6411 29.4442 33.4367 28.1337 33.9796C26.8231 34.5224 25.4185 34.8018 24 34.8018C21.1352 34.8018 18.3877 33.6638 16.362 31.6381L31.638 16.3621Z" fill="#e8f5fe"/><path d="M20.4 19.5481H18.6V23.1481H20.4V19.5481Z" fill="#0091da"/><path d="M29.4 24.048L24 19.548L18.6 24.048H17.682C17.5887 24.0504 17.4969 24.0236 17.4195 23.9715C17.342 23.9194 17.2827 23.8444 17.2497 23.7571C17.2168 23.6697 17.2118 23.5743 17.2355 23.484C17.2592 23.3937 17.3104 23.313 17.382 23.253L24 17.748L30.6 23.253C30.6716 23.313 30.7228 23.3937 30.7465 23.484C30.7702 23.5743 30.7652 23.6697 30.7323 23.7571C30.6993 23.8444 30.64 23.9194 30.5625 23.9715C30.4851 24.0236 30.3933 24.0504 30.3 24.048H29.4Z" fill="#002f6c"/><path d="M29.4 24.0481L24 19.5481L18.6 24.0481V29.1481H22.8V24.9481H25.2V29.1481H29.4V24.0481Z" fill="#0091da"/></svg>