<?xml version="1.0" encoding="UTF-8"?><svg width="48" height="48" viewBox="0 0 48 48" fill="none" xmlns="http://www.w3.org/2000/svg">
<path d="M24 48C37.2548 48 48 37.2548 48 24C48 10.7452 37.2548 0 24 0C10.7452 0 0 10.7452 0 24C0 37.2548 10.7452 48 24 48Z" fill="#e8f5fe"/>
<path d="M40.623 22.9769C40.5106 22.8651 40.3585 22.8024 40.2 22.8024C40.0415 22.8024 39.8894 22.8651 39.777 22.9769L39 23.7569C38.9424 20.2974 37.6906 16.9643 35.4568 14.3221C33.2229 11.6799 30.1444 9.89125 26.7427 9.2591C23.341 8.62695 19.8253 9.19021 16.7914 10.8534C13.7574 12.5167 11.3918 15.1776 10.0952 18.3854C8.79857 21.5932 8.65078 25.1506 9.67683 28.4549C10.7029 31.7592 12.8397 34.6072 15.7252 36.5164C18.6107 38.4255 22.0675 39.2784 25.5099 38.9306C28.9524 38.5828 32.1687 37.0557 34.614 34.6079C34.7266 34.4953 34.7898 34.3426 34.7898 34.1834C34.7898 34.0242 34.7266 33.8715 34.614 33.7589C34.5014 33.6463 34.3487 33.5831 34.1895 33.5831C34.0303 33.5831 33.8776 33.6463 33.765 33.7589C31.5162 36.0098 28.5586 37.4145 25.393 37.7351C22.2274 38.0557 19.0482 37.2725 16.3938 35.5182C13.7393 33.7639 11.7726 31.1463 10.8265 28.1083C9.88051 25.0704 10.0133 21.799 11.2025 18.8477C12.3916 15.8965 14.5641 13.4468 17.352 11.9135C20.14 10.3801 23.3721 9.85727 26.5013 10.4334C29.6305 11.0096 32.4645 12.6493 34.5235 15.0751C36.5825 17.5009 37.74 20.5637 37.8 23.7449L37.029 22.9769C36.9142 22.8786 36.7666 22.8272 36.6156 22.8331C36.4646 22.8389 36.3213 22.9015 36.2145 23.0084C36.1076 23.1152 36.045 23.2585 36.0392 23.4095C36.0333 23.5605 36.0847 23.7081 36.183 23.8229L37.983 25.6229C38.0954 25.7346 38.2475 25.7974 38.406 25.7974C38.5645 25.7974 38.7166 25.7346 38.829 25.6229L40.629 23.8229C40.74 23.7097 40.8016 23.5572 40.8005 23.3987C40.7994 23.2401 40.7356 23.0885 40.623 22.9769Z" fill="#ffb81c"/>
<path d="M24 33.5999C29.302 33.5999 33.6 29.3018 33.6 23.9999C33.6 18.698 29.302 14.3999 24 14.3999C18.6981 14.3999 14.4 18.698 14.4 23.9999C14.4 29.3018 18.6981 33.5999 24 33.5999Z" fill="#0091da"/>
<path d="M30.789 17.2109C32.5896 19.0115 33.6011 21.4536 33.6011 23.9999C33.6011 26.5463 32.5896 28.9884 30.789 30.7889C28.9884 32.5895 26.5464 33.601 24 33.601C21.4536 33.601 19.0116 32.5895 17.211 30.7889" fill="#005eb8"/>
<path d="M27.183 25.4999C27.0969 24.9073 26.7865 24.3704 26.316 23.9999C25.89 23.6339 25.416 23.4959 24.63 23.2679C24.414 23.2079 24.282 23.1749 24.159 23.1479C24.036 23.1209 23.925 23.0909 23.718 23.0249C23.45 22.9619 23.1924 22.8609 22.953 22.7249C22.8418 22.6613 22.7488 22.5702 22.683 22.4604C22.6172 22.3505 22.5807 22.2256 22.5771 22.0975C22.5735 21.9695 22.6028 21.8427 22.6624 21.7293C22.7219 21.6159 22.8096 21.5197 22.917 21.4499C23.1779 21.2619 23.4961 21.1707 23.817 21.1919C24.4615 21.1756 25.0936 21.3705 25.617 21.7469C25.7797 21.8441 25.9735 21.8755 26.1586 21.8347C26.3437 21.7939 26.5062 21.684 26.6131 21.5274C26.7199 21.3708 26.7629 21.1794 26.7333 20.9921C26.7038 20.8049 26.6039 20.636 26.454 20.5199C25.9165 20.1586 25.3096 19.9134 24.672 19.7999V19.3799C24.6712 19.1836 24.5929 18.9956 24.4541 18.8568C24.3153 18.718 24.1273 18.6397 23.931 18.6389V18.6389C23.7339 18.6405 23.5455 18.7199 23.4067 18.8598C23.2679 18.9997 23.19 19.1888 23.19 19.3859V19.7759C22.733 19.8445 22.304 20.0387 21.951 20.3369C21.6775 20.5503 21.4578 20.8249 21.3096 21.1386C21.1614 21.4522 21.0887 21.7963 21.0975 22.1431C21.1062 22.4899 21.1961 22.8298 21.36 23.1356C21.5238 23.4414 21.7571 23.7046 22.041 23.9039C22.4092 24.1613 22.8223 24.3475 23.259 24.4529C23.523 24.5399 23.661 24.5729 23.82 24.6119C23.925 24.6359 24.039 24.6629 24.222 24.7139C24.897 24.9119 25.179 24.9959 25.356 25.1459C25.5386 25.2812 25.6656 25.4786 25.713 25.7009C25.7295 25.8707 25.6906 26.0412 25.602 26.1869C25.5103 26.3132 25.39 26.416 25.251 26.4869C24.7848 26.7123 24.2555 26.7716 23.751 26.6549C23.1132 26.5332 22.528 26.2191 22.074 25.7549C21.9328 25.6238 21.7462 25.5526 21.5535 25.5564C21.3608 25.5601 21.1771 25.6384 21.041 25.7749C20.9049 25.9113 20.8271 26.0953 20.824 26.288C20.8208 26.4806 20.8925 26.667 21.024 26.8079C21.6257 27.4017 22.3742 27.8251 23.193 28.0349V28.6019C23.193 28.8008 23.272 28.9916 23.4127 29.1322C23.5533 29.2729 23.7441 29.3519 23.943 29.3519C24.1419 29.3519 24.3327 29.2729 24.4733 29.1322C24.614 28.9916 24.693 28.8008 24.693 28.6019V28.1999C25.1612 28.1619 25.6151 28.0205 26.022 27.7859C26.3786 27.5856 26.6781 27.2975 26.892 26.9489C27.1512 26.5132 27.2539 26.002 27.183 25.4999V25.4999Z" fill="white"/>
</svg>
